<svg aria-hidden="true" style="position: absolute; width: 0; height: 0; overflow: hidden;" version="1.1" xmlns="http://www.w3.org/2000/svg" xmlns:xlink="http://www.w3.org/1999/xlink">
<defs>
<symbol id="icon-icon-send" viewBox="0 0 38 32">
<path fill="#fff" style="fill: var(--color1, #fff)" d="M38.4 0l-38.4 18 12.272 3.787 18.928-14.787-14.397 16.186 0.011 0.005-0.014-0.005v8.814l6.882-6.691 8.72 2.691 5.998-28z"></path>
</symbol>
<symbol id="icon-icon-tel" viewBox="0 0 32 32">
<path d="M28.864 21.822l-4.524-0.517c-0.124-0.015-0.267-0.024-0.413-0.024-0.98 0-1.867 0.398-2.509 1.041l-3.276 3.276c-5.081-2.621-9.119-6.659-11.671-11.59l-0.070-0.149 3.298-3.296c0.642-0.641 1.038-1.528 1.038-2.507 0-0.146-0.009-0.289-0.026-0.43l0.002 0.017-0.517-4.49c-0.213-1.784-1.717-3.153-3.541-3.153-0.001 0-0.003 0-0.004 0h-3.082c-2.014 0-3.687 1.674-3.562 3.687 0.943 15.212 13.11 27.362 28.305 28.308 2.014 0.123 3.687-1.551 3.687-3.564v-3.082c0-0.006 0-0.013 0-0.020 0-1.811-1.363-3.303-3.12-3.506l-0.016-0.002z"></path>
</symbol>
<symbol id="icon-icon-mail" viewBox="0 0 43 32">
<path d="M37.333 0h-32c-2.2 0-3.981 1.8-3.981 4l-0.019 24c0 2.2 1.8 4 4 4h32c2.2 0 4-1.8 4-4v-24c0-2.2-1.8-4-4-4zM36.533 8.501l-14.139 8.837c-0.302 0.188-0.668 0.3-1.060 0.3s-0.758-0.112-1.069-0.305l0.009 0.005-14.141-8.84c-0.503-0.301-0.835-0.843-0.835-1.463 0-0.938 0.761-1.699 1.699-1.699 0.349 0 0.673 0.105 0.943 0.285l-0.006-0.004 13.4 8.381 13.4-8.381c0.264-0.176 0.588-0.282 0.937-0.282 0.938 0 1.699 0.761 1.699 1.699 0 0.62-0.332 1.162-0.828 1.459l-0.008 0.004z"></path>
</symbol>
<symbol id="icon-icon-close" viewBox="0 0 32 32">
<path d="M32 3.224l-3.224-3.224-12.776 12.776-12.776-12.776-3.224 3.224 12.776 12.776-12.776 12.776 3.224 3.224 12.776-12.776 12.776 12.776 3.224-3.224-12.776-12.776 12.776-12.776z"></path>
</symbol>
<symbol id="icon-icon-user" viewBox="0 0 32 32">
<path d="M16 16c4.418 0 8-3.582 8-8s-3.582-8-8-8v0c-4.418 0-8 3.582-8 8s3.582 8 8 8v0zM16 20c-5.339 0-16 2.68-16 8v2c0 1.099 0.901 2 2 2h28c1.099 0 2-0.901 2-2v-2c0-5.32-10.661-8-16-8z"></path>
</symbol>
<symbol id="icon-astronot" viewBox="0 0 29 32">
<path d="M27.75 13.653c-0.314-0.423-0.784-0.715-1.324-0.79l-0.011-0.001c-0.086-0.013-0.184-0.020-0.285-0.020-0.461 0-0.886 0.157-1.224 0.42l0.004-0.003-1.406 1.077-2.131 1.592-1.525-0.607c2.718-1.219 4.619-3.939 4.619-7.096 0-4.293-3.506-7.784-7.816-7.784s-7.816 3.492-7.816 7.784c0 1.556 0.465 3.002 1.258 4.22l-3.109-0.027c-0.010 0-0.017 0.005-0.026 0.006-0.063 0.003-0.123 0.015-0.178 0.036l0.004-0.001c-0.015 0.006-0.029 0.008-0.043 0.015-0.007 0.003-0.014 0.003-0.021 0.007l-3.631 1.793-2.126 1.023c-0.027 0.012-0.050 0.025-0.072 0.040l0.002-0.001c-0.541 0.363-0.892 0.973-0.892 1.664 0 0.333 0.081 0.647 0.226 0.923l-0.005-0.011c0.247 0.482 0.668 0.837 1.186 0.999 0.18 0.059 0.388 0.093 0.603 0.093 0.346 0 0.671-0.088 0.955-0.243l-0.010 0.005 1.558-0.829 2.542-1.313 1.524-0.010-6.11 6.082s-0.001 0-0.002 0.001l-1.503 1.497c-0.34 0.336-0.55 0.802-0.55 1.317 0 0.002 0 0.004 0 0.006v-0c0 0.5 0.195 0.97 0.55 1.323 0.365 0.363 0.844 0.545 1.324 0.545 0.481 0 0.959-0.181 1.325-0.545l1.476-1.469 1.955-1.46 1.011 1.007-3.483 3.468c-0.34 0.336-0.55 0.802-0.55 1.317 0 0.002 0 0.004 0 0.005v-0c0 0.5 0.195 0.97 0.55 1.324 0.365 0.363 0.845 0.545 1.325 0.545s0.96-0.182 1.325-0.545l3.91-3.892c0-0.001 0-0.002 0.001-0.002l1.133-1.123-0.005-0.004c0.007-0.007 0.017-0.010 0.025-0.017l5.8-6.354 3.897 0.554c0.023 0.003 0.049 0.005 0.076 0.005 0.079 0 0.154-0.015 0.223-0.043l-0.004 0.001c0.020-0.007 0.037-0.017 0.056-0.026 0.021-0.011 0.044-0.017 0.064-0.030l3.608-2.396c0.013-0.009 0.020-0.023 0.033-0.033 0.014-0.011 0.032-0.017 0.045-0.029l1.428-1.337c0.39-0.365 0.633-0.884 0.633-1.459 0-0.449-0.148-0.864-0.399-1.198l0.004 0.005zM2.392 17.707c-0.194 0.104-0.415 0.125-0.627 0.058-0.331-0.104-0.567-0.408-0.567-0.767 0-0.265 0.128-0.5 0.326-0.646l0.002-0.002 1.475-0.71 0.355 1.038 0.149 0.436-1.114 0.592zM6.319 15.655l-1.739 0.898-0.286-0.839-0.206-0.602 2.275-1.123-0.044 1.666zM23.272 8.221c0 1.031-0.246 2.004-0.673 2.874l-4.695-2.132c-0.049-0.646-0.384-1.204-0.878-1.554l-0.007-0.004 1.644-5.457c2.669 0.848 4.609 3.339 4.609 6.273zM10.036 8.221c0-3.632 2.969-6.588 6.618-6.588 0.284 0 0.561 0.024 0.837 0.059l-1.608 5.337c-0.021 0-0.042-0.006-0.064-0.006-0 0-0.001 0-0.001 0-1.159 0-2.098 0.938-2.101 2.095v0c0.003 1.158 0.943 2.096 2.101 2.096 0 0 0.001 0 0.001 0h-0c0.78 0 1.453-0.43 1.817-1.060l4.337 1.971c-1.207 1.624-3.138 2.684-5.318 2.684-3.649 0-6.618-2.956-6.618-6.588zM16.724 9.119c0 0.495-0.406 0.898-0.905 0.898-0.001 0-0.001 0-0.002 0-0.497 0-0.9-0.402-0.903-0.898v-0c0-0.495 0.406-0.898 0.905-0.898s0.905 0.403 0.905 0.898zM2.767 25.988c-0.123 0.122-0.293 0.197-0.48 0.197s-0.356-0.075-0.479-0.196l0 0c-0.122-0.121-0.198-0.289-0.198-0.474s0.076-0.353 0.198-0.474l0-0 1.080-1.076 0.956 0.952-1.076 1.072zM6.376 30.18c-0.123 0.122-0.293 0.198-0.481 0.198s-0.356-0.075-0.479-0.197l0 0c-0.122-0.121-0.198-0.289-0.198-0.474s0.076-0.353 0.198-0.474l0-0 1.081-1.077 0.957 0.952-1.078 1.072zM10.285 26.286l-0.002 0.001-1.982 1.976-0.956-0.952 1.98-1.972s0.001 0 0.002-0.001c0.045-0.045 0.073-0.099 0.101-0.152 0.007-0.016 0.022-0.029 0.029-0.045 0.019-0.047 0.021-0.096 0.028-0.145 0.004-0.027 0.016-0.053 0.016-0.081 0-0.040-0.014-0.079-0.022-0.118-0.007-0.036-0.007-0.073-0.021-0.107-0.022-0.056-0.062-0.106-0.103-0.154-0.011-0.013-0.015-0.030-0.028-0.043h-0.001l-0.001-0.002-1.804-1.797c-0.019-0.019-0.044-0.027-0.065-0.043-0.029-0.023-0.061-0.045-0.095-0.063l-0.003-0.002c-0.030-0.014-0.065-0.027-0.101-0.036l-0.004-0.001c-0.034-0.011-0.073-0.019-0.113-0.022l-0.002-0c-0.007-0-0.015-0-0.023-0-0.030 0-0.059 0.002-0.087 0.006l0.003-0c-0.043 0.004-0.083 0.012-0.122 0.024l0.004-0.001c-0.040 0.015-0.075 0.032-0.108 0.052l0.002-0.001c-0.022 0.012-0.048 0.017-0.069 0.032l-1.991 1.487-1.011-1.007 2.694-2.68 4.895 4.816-1.041 1.032zM17.941 18.407c-0.017-0.002-0.034 0.005-0.051 0.003-0.009-0-0.019-0.001-0.029-0.001-0.035 0-0.070 0.003-0.104 0.009l0.004-0.001c-0.034 0.006-0.067 0.012-0.099 0.024-0.041 0.015-0.077 0.033-0.111 0.054l0.002-0.001c-0.034 0.020-0.064 0.042-0.093 0.069-0.015 0.012-0.032 0.019-0.045 0.033l-5.276 5.778-4.859-4.78 3.181-3.164c0.108-0.108 0.175-0.258 0.175-0.423 0-0.331-0.268-0.6-0.6-0.6-0.001 0-0.001 0-0.002 0h0l-2.491 0.015 0.031-1.805 3.485 0.030c1.419 1.456 3.399 2.359 5.59 2.359 0.001 0 0.003 0 0.004 0h-0c0.491 0 0.97-0.051 1.437-0.138 0.045 0.036 0.089 0.072 0.146 0.095l2.705 1.078 0.371 1.845-3.372-0.479zM22.479 18.608l-0.352-1.749 1.624-1.213 1.063 1.411-2.335 1.551zM26.694 15.429l-0.941 0.881-1.045-1.388 0.934-0.715c0.174-0.135 0.394-0.189 0.609-0.161 0.217 0.030 0.409 0.144 0.539 0.319 0.244 0.328 0.202 0.785-0.095 1.064z"></path>
</symbol>
<symbol id="icon-astronotkarnndakikare" viewBox="0 0 32 32">
<path d="M29.877 13.568l-11.429-11.379c-0.514-0.512-1.223-0.829-2.007-0.829s-1.493 0.317-2.007 0.829l-11.427 11.379c-0.515 0.517-0.833 1.23-0.833 2.017s0.318 1.5 0.833 2.017l-0-0 11.427 11.376c0.514 0.512 1.223 0.829 2.007 0.829s1.493-0.317 2.007-0.829l11.429-11.376c0.518-0.515 0.839-1.229 0.839-2.017s-0.321-1.502-0.839-2.017l-0-0zM16.443 22.949l-7.395-7.365 7.395-7.363 7.4 7.363-7.4 7.365z"></path>
</symbol>
<symbol id="icon-astronotkaskndakiilksekil" viewBox="0 0 32 32">
<path d="M6.075 0.649l-2.359 9.467c0.649 0.16 15.89 4.133 15.89 19.648h9.751c0-18.446-15.227-27.113-23.282-29.125z"></path>
</symbol>
<symbol id="icon-astronotkaskndakikare" viewBox="0 0 32 32">
<path d="M25.835 6.869h-22.752v22.752h22.752v-22.752z"></path>
</symbol>
<symbol id="icon-computer" viewBox="0 0 41 32">
<path d="M2.047 31.732h32.751c0 0 0 0 0.001 0 1.13 0 2.047-0.916 2.047-2.047v0-2.73c0-1.13-0.916-2.047-2.047-2.047-0 0-0 0-0.001 0h-0.682v-17.016l3.876-3.671c0.265 0.134 0.579 0.212 0.91 0.212 1.137 0 2.058-0.921 2.058-2.058s-0.922-2.058-2.058-2.058c-1.137 0-2.058 0.921-2.058 2.058 0 0.316 0.071 0.615 0.198 0.882l-0.005-0.012-2.92 2.768v-1.574c0-1.13-0.916-2.047-2.047-2.047v0h-27.292c-0 0-0 0-0.001 0-1.13 0-2.047 0.916-2.047 2.047 0 0 0 0 0 0.001v-0 20.468h-0.682c-1.13 0-2.047 0.916-2.047 2.047 0 0 0 0 0 0.001v-0 2.73c0 1.13 0.916 2.047 2.047 2.047v0zM38.892 1.711c0.377 0 0.683 0.306 0.683 0.683s-0.306 0.683-0.683 0.683v0c-0.377 0-0.683-0.306-0.683-0.683s0.306-0.683 0.683-0.683v0zM4.094 4.44c0-0.378 0.305-0.682 0.682-0.682h27.292c0.377 0 0.682 0.305 0.682 0.682v2.865l-1.364 1.297v-2.797c0-0.377-0.305-0.682-0.682-0.682h-24.563c-0.377 0-0.682 0.305-0.682 0.682v17.057c0 0.378 0.305 0.683 0.682 0.683h24.563c0.377 0 0.682-0.306 0.682-0.683v-12.383l1.364-1.293v15.722h-28.657v-20.468zM10.235 13.31c-0.002 0-0.004 0-0.006 0-1.13 0-2.047 0.916-2.047 2.047s0.916 2.047 2.047 2.047c0.553 0 1.055-0.219 1.423-0.576l-0.001 0.001 2.372 1.19c0.275 0.138 0.61 0.073 0.815-0.157l5.041-5.672 4.956 3.714c0.266 0.199 0.637 0.178 0.878-0.051l4.307-4.080v10.408h-23.197v-15.693h23.199v3.405l-4.828 4.572-4.998-3.747c-0.113-0.085-0.255-0.136-0.409-0.136-0.202 0-0.384 0.088-0.509 0.228l-0.001 0.001-5.111 5.75-1.911-0.956c0.014-0.082 0.023-0.164 0.026-0.248-0-1.13-0.916-2.046-2.047-2.047h-0zM10.917 15.357c0 0.377-0.306 0.683-0.683 0.683s-0.683-0.306-0.683-0.683v0c0-0.377 0.306-0.683 0.683-0.683s0.683 0.306 0.683 0.683v0zM15.011 26.274h6.823v0.682c0 0.377-0.305 0.682-0.682 0.682h-5.459c-0.377 0-0.682-0.305-0.682-0.682v0-0.682zM1.364 26.957c0-0.377 0.306-0.682 0.682-0.682h11.599v0.682c0 0 0 0 0 0.001 0 1.13 0.916 2.047 2.047 2.047h5.459c1.13 0 2.047-0.916 2.047-2.047 0-0 0-0 0-0.001v0-0.682h11.598c0.378 0 0.683 0.305 0.683 0.682v2.73c0 0.376-0.306 0.682-0.683 0.682h-32.75c-0.377 0-0.682-0.305-0.682-0.682v0-2.73z"></path>
</symbol>
<symbol id="icon-faceicon" viewBox="0 0 17 32">
<path fill="#f4f4fd" style="fill: var(--color2, #f4f4fd)" d="M13.329 5.313h2.921v-5.088c-0.504-0.069-2.237-0.225-4.256-0.225-4.212 0-7.097 2.649-7.097 7.519v4.481h-4.648v5.688h4.648v14.312h5.699v-14.311h4.46l0.708-5.688h-5.169v-3.919c0.001-1.644 0.444-2.769 2.735-2.769z"></path>
</symbol>
<symbol id="icon-hover" viewBox="0 0 384 32">
<path fill="#404bbf" style="fill: var(--color3, #404bbf)" d="M16 0h352c8.837 0 16 7.163 16 16s-7.163 16-16 16h-352c-8.837 0-16-7.163-16-16s7.163-16 16-16z"></path>
</symbol>
<symbol id="icon-instacerceve" viewBox="0 0 32 32">
<path fill="#f4f4fd" style="fill: var(--color2, #f4f4fd)" d="M31.969 9.408c-0.076-1.7-0.351-2.869-0.744-3.883-0.424-1.111-1.054-2.058-1.849-2.836l-0.001-0.001c-0.78-0.792-1.724-1.419-2.778-1.826l-0.054-0.018c-1.019-0.393-2.183-0.671-3.883-0.744-1.712-0.080-2.256-0.1-6.599-0.1-4.348 0-4.892 0.019-6.599 0.093-1.699 0.076-2.868 0.351-3.88 0.744-1.112 0.424-2.059 1.054-2.837 1.849l-0.001 0.001c-0.792 0.78-1.419 1.724-1.826 2.778l-0.018 0.054c-0.393 1.019-0.669 2.181-0.744 3.88-0.080 1.715-0.1 2.259-0.1 6.603 0 4.345 0.019 4.889 0.093 6.596 0.076 1.7 0.351 2.868 0.745 3.881 0.426 1.111 1.055 2.057 1.848 2.838l0.001 0.001c0.8 0.813 1.769 1.444 2.832 1.844 1.019 0.393 2.181 0.668 3.883 0.744 1.707 0.075 2.249 0.093 6.595 0.093 4.344 0 4.888-0.019 6.595-0.093 1.7-0.076 2.869-0.351 3.883-0.744 2.157-0.85 3.832-2.526 4.662-4.627l0.019-0.055c0.395-1.019 0.669-2.181 0.744-3.881 0.075-1.707 0.093-2.251 0.093-6.596 0-4.344-0.005-4.888-0.080-6.595zM29.087 22.473c-0.068 1.563-0.331 2.407-0.549 2.969-0.551 1.399-1.639 2.486-3.003 3.025l-0.036 0.013c-0.563 0.22-1.413 0.481-2.969 0.551-1.688 0.075-2.193 0.093-6.464 0.093-4.269 0-4.781-0.019-6.464-0.093-1.563-0.069-2.407-0.331-2.969-0.551-0.721-0.269-1.335-0.676-1.836-1.192l-0.001-0.001c-0.517-0.504-0.924-1.117-1.183-1.803l-0.011-0.034c-0.219-0.563-0.48-1.413-0.549-2.969-0.075-1.688-0.093-2.195-0.093-6.464 0-4.271 0.019-4.783 0.093-6.464 0.069-1.563 0.331-2.407 0.549-2.969 0.257-0.693 0.664-1.325 1.2-1.839 0.504-0.517 1.119-0.923 1.806-1.182l0.034-0.011c0.561-0.219 1.412-0.48 2.968-0.551 1.688-0.075 2.195-0.093 6.464-0.093 4.276 0 4.781 0.019 6.464 0.093 1.563 0.069 2.407 0.332 2.969 0.551 0.693 0.256 1.325 0.663 1.837 1.193 0.532 0.52 0.937 1.144 1.195 1.839 0.219 0.563 0.48 1.413 0.549 2.969 0.075 1.688 0.093 2.193 0.093 6.464 0 4.269-0.019 4.769-0.093 6.457z"></path>
</symbol>
<symbol id="icon-instacircle" viewBox="0 0 32 32">
<path fill="#f4f4fd" style="fill: var(--color2, #f4f4fd)" d="M16.103 1.913c-7.782 0.001-14.091 6.309-14.094 14.091v0c0.003 7.782 6.311 14.090 14.094 14.091h0c7.781-0.003 14.089-6.31 14.091-14.091v-0c-0.003-7.781-6.31-14.089-14.091-14.091h-0zM16.103 25.145c-5.049 0-9.143-4.093-9.143-9.143s4.093-9.143 9.143-9.143v0c5.049 0 9.143 4.093 9.143 9.143s-4.093 9.143-9.143 9.143v0z"></path>
</symbol>
<symbol id="icon-instapoint" viewBox="0 0 24 32">
<path fill="#f4f4fd" style="fill: var(--color2, #f4f4fd)" d="M23.144 12.744c0.003 0.090 0.004 0.197 0.004 0.304 0 6.362-5.158 11.52-11.52 11.52s-11.52-5.158-11.52-11.52c0-0.107 0.001-0.213 0.004-0.319l-0 0.016c0.169-6.23 5.26-11.216 11.516-11.216s11.347 4.986 11.516 11.201l0 0.016z"></path>
</symbol>
<symbol id="icon-linkedi" viewBox="0 0 11 32">
<path fill="#f4f4fd" style="fill: var(--color2, #f4f4fd)" d="M0.745 1.839h9.367v30.161h-9.367v-30.161z"></path>
</symbol>
<symbol id="icon-linkedinn" viewBox="0 0 30 32">
<path fill="#f4f4fd" style="fill: var(--color2, #f4f4fd)" d="M30.106 32v-0.002h0.011v-16.568c0-8.105-1.745-14.349-11.219-14.349-4.555 0-7.614 2.5-8.862 4.87h-0.132v-4.113h-8.983v30.161h9.355v-14.935c0-3.932 0.745-7.735 5.615-7.735 4.8 0 4.87 4.488 4.87 7.987v14.684h9.346z"></path>
</symbol>
<symbol id="icon-linkedinpoint" viewBox="0 0 32 32">
<path fill="#f4f4fd" style="fill: var(--color2, #f4f4fd)" d="M15.371 0c-8.488 0.003-15.368 6.883-15.371 15.37v0c0 8.485 6.885 15.515 15.371 15.515s15.371-7.029 15.371-15.515c-0.006-8.487-6.884-15.365-15.37-15.371h-0.001z"></path>
</symbol>
<symbol id="icon-saat" viewBox="0 0 31 32">
<path d="M30.797 15.301c-0.002-8.452-6.855-15.303-15.308-15.301s-15.303 6.855-15.301 15.308c0.002 6.788 4.422 12.543 10.541 14.545l0.108 0.031c0.060 0.019 0.123 0.029 0.187 0.029 0.121 0 0.239-0.032 0.342-0.093 0.135-0.080 0.236-0.207 0.284-0.357l3.865-12.25c1.054-0.004 1.906-0.859 1.906-1.913 0-1.057-0.856-1.913-1.913-1.913-0.303 0-0.59 0.070-0.844 0.196l0.011-0.005-5.106-5.107c-0.115-0.115-0.275-0.187-0.451-0.187-0.352 0-0.638 0.285-0.638 0.638 0 0.176 0.071 0.336 0.187 0.451v0l5.104 5.109c-0.121 0.241-0.191 0.525-0.191 0.826 0 0.601 0.283 1.137 0.723 1.48l0.004 0.003-3.683 11.673c-7.278-2.681-11.005-10.754-8.323-18.032 2.681-7.277 10.755-11.005 18.032-8.323s11.004 10.755 8.323 18.032c-1.345 3.581-4.004 6.406-7.374 7.938l-0.088 0.036-0.398-1.875c-0.063-0.291-0.318-0.505-0.624-0.505-0.163 0-0.312 0.061-0.425 0.162l0.001-0.001-3.837 3.425c-0.132 0.117-0.214 0.287-0.214 0.477 0 0.283 0.185 0.524 0.441 0.607l0.005 0.001 4.898 1.564c0.058 0.020 0.126 0.031 0.196 0.031 0.352 0 0.637-0.285 0.637-0.637 0-0.047-0.005-0.093-0.015-0.137l0.001 0.004-0.391-1.839c5.528-2.374 9.329-7.772 9.329-14.057 0-0.011 0-0.023-0-0.034v0.002zM15.492 14.664c0.352 0 0.638 0.286 0.638 0.638s-0.286 0.638-0.638 0.638v0c-0.352 0-0.638-0.286-0.638-0.638s0.286-0.638 0.638-0.638v0zM17.593 29.527l2.184-1.948 0.603 2.84-2.787-0.892z"></path>
</symbol>
<symbol id="icon-saatdikey" viewBox="0 0 21 32">
<path fill="#4d5ae5" style="fill: var(--color4, #4d5ae5)" d="M3.781 7.307v13.6c0 3.756 3.044 6.8 6.8 6.8s6.8-3.044 6.8-6.8v0-13.6c-0.149-3.641-3.136-6.536-6.8-6.536s-6.651 2.895-6.8 6.523l-0 0.013z"></path>
</symbol>
<symbol id="icon-saatyatay" viewBox="0 0 64 32">
<path fill="#4d5ae5" style="fill: var(--color4, #4d5ae5)" d="M18.688 3.488c-7.511 0-13.6 6.089-13.6 13.6s6.089 13.6 13.6 13.6v0h27.2c7.511 0 13.6-6.089 13.6-13.6s-6.089-13.6-13.6-13.6v0h-27.2z"></path>
</symbol>
<symbol id="icon-square" viewBox="0 0 32 32">
<path fill="#4d5ae5" style="fill: var(--color4, #4d5ae5)" d="M24.181 0.469h-22.752v22.763h22.752v-22.763z"></path>
</symbol>
<symbol id="icon-star" viewBox="0 0 32 32">
<path fill="#4d5ae5" style="fill: var(--color4, #4d5ae5)" d="M31.889 12.902c-0.272-0.815-0.97-1.416-1.822-1.545l-0.013-0.002-8.151-1.186-3.648-7.386c-0.766-1.557-3.317-1.557-4.081 0l-3.648 7.386-8.149 1.186c-1.108 0.166-1.948 1.111-1.948 2.253 0 0.638 0.262 1.214 0.685 1.628l5.899 5.75-1.393 8.119c-0.145 0.853 0.205 1.715 0.905 2.225 0.708 0.516 1.632 0.578 2.398 0.173l7.292-3.834 7.292 3.834c0.306 0.163 0.668 0.258 1.053 0.258 1.258 0 2.278-1.020 2.278-2.278 0-0.133-0.011-0.264-0.033-0.391l0.002 0.014-1.391-8.119 5.901-5.749c0.424-0.415 0.687-0.993 0.687-1.632 0-0.251-0.040-0.492-0.115-0.718l0.005 0.016zM21.38 18.564c-0.533 0.521-0.781 1.276-0.653 2.014l0.815 4.753-4.269-2.242c-0.307-0.166-0.672-0.263-1.060-0.263s-0.753 0.097-1.072 0.269l0.012-0.006-4.269 2.242 0.813-4.753c0.021-0.116 0.033-0.249 0.033-0.385 0-0.638-0.262-1.215-0.685-1.629l-3.456-3.369 4.774-0.693c0.742-0.107 1.38-0.574 1.713-1.244l2.133-4.324 2.138 4.324c0.333 0.67 0.973 1.137 1.715 1.244l4.772 0.693-3.452 3.369z"></path>
</symbol>
<symbol id="icon-sutunuc" viewBox="0 0 9 32">
<path fill="#4d5ae5" style="fill: var(--color4, #4d5ae5)" d="M2.476 2.705h6.202v27.91h-6.202v-27.91z"></path>
</symbol>
<symbol id="icon-sutundort" viewBox="0 0 16 32">
<path fill="#4d5ae5" style="fill: var(--color4, #4d5ae5)" d="M2.027 1.035h11.371v28.427h-11.371v-28.427z"></path>
</symbol>
<symbol id="icon-sutunbir" viewBox="0 0 32 32">
<path fill="#4d5ae5" style="fill: var(--color4, #4d5ae5)" d="M7.408 2.608h17.056v25.584h-17.056v-25.584z"></path>
</symbol>
<symbol id="icon-sutuniki" viewBox="0 0 32 32">
<path fill="#4d5ae5" style="fill: var(--color4, #4d5ae5)" d="M3.435 4.181h22.741v22.741h-22.741v-22.741z"></path>
</symbol>
<symbol id="icon-twitterbird" viewBox="0 0 38 32">
<path fill="#f4f4fd" style="fill: var(--color2, #f4f4fd)" d="M38.4 4.093c-1.427 0.627-2.949 1.042-4.536 1.245 1.633-0.981 2.859-2.495 3.448-4.298l0.016-0.055c-1.437 0.867-3.109 1.528-4.891 1.889l-0.101 0.017c-1.44-1.536-3.482-2.493-5.747-2.493-4.347 0-7.87 3.524-7.87 7.87 0 0.002 0 0.005 0 0.007v-0c0 0.624 0.053 1.222 0.182 1.794-6.546-0.318-12.336-3.456-16.227-8.234-0.675 1.14-1.075 2.513-1.077 3.979v0.001c0 2.726 1.403 5.142 3.496 6.542-1.311-0.036-2.531-0.39-3.596-0.988l0.039 0.020v0.086c0.005 3.797 2.685 6.966 6.255 7.725l0.052 0.009c-0.64 0.176-1.339 0.259-2.064 0.259-0.039 0.001-0.085 0.001-0.132 0.001-0.481 0-0.951-0.049-1.404-0.142l0.045 0.008c1.021 3.117 3.915 5.408 7.357 5.483-2.657 2.094-6.054 3.358-9.745 3.358-0.005 0-0.011 0-0.016 0h0.001c-0.646 0-1.266-0.029-1.885-0.109 3.392 2.215 7.544 3.533 12.005 3.533 0.025 0 0.050-0 0.076-0h-0.004c14.486 0 22.406-12 22.406-22.402 0-0.347-0.013-0.683-0.029-1.018 1.559-1.125 2.869-2.48 3.91-4.031l0.036-0.057z"></path>
</symbol>
<symbol id="icon-uydu" viewBox="0 0 30 32">
<path d="M29.773 22.098l-8.443-8.505 0.937-4.615c0.242 0.094 0.499 0.143 0.759 0.145h0.006c0.008 0 0.017 0 0.026 0 1.192 0 2.159-0.967 2.159-2.159s-0.967-2.159-2.159-2.159c-1.192 0-2.159 0.967-2.159 2.159 0 0.26 0.046 0.508 0.13 0.739l-0.005-0.015-4.96 0.605-8.091-8.133c-0.096-0.098-0.229-0.159-0.376-0.16h-0c-0.14 0.001-0.274 0.057-0.373 0.155l-1.513 1.504c-0.097 0.097-0.156 0.23-0.156 0.377s0.060 0.281 0.156 0.377v0l0.814 0.825c-1.143 2.062-1.816 4.522-1.816 7.139 0 4.106 1.656 7.825 4.336 10.526l-0.001-0.001c0.042 0.041 0.091 0.073 0.146 0.098-0.032 0.164-0.051 0.353-0.052 0.546v6.188h-6.4c-1.472 0.001-2.666 1.194-2.667 2.666v1.067c0.001 0.295 0.24 0.533 0.534 0.533h24.534c0.294 0 0.534-0.239 0.534-0.534v-1.067c-0.002-1.472-1.195-2.665-2.667-2.666h-6.4v-2.742c1.003 0.21 2.024 0.317 3.049 0.32 2.58-0.003 5.005-0.663 7.117-1.822l-0.077 0.039 0.819 0.823c0.099 0.101 0.235 0.159 0.377 0.16 0.14-0.001 0.274-0.056 0.373-0.155l1.512-1.505c0.096-0.097 0.156-0.23 0.156-0.377s-0.060-0.28-0.156-0.377v0zM22.28 6.233c0.193-0.192 0.458-0.31 0.752-0.31 0.589 0 1.067 0.478 1.067 1.066s-0.477 1.066-1.067 1.066c-0 0-0 0-0 0h-0.003c-0.587-0.003-1.061-0.479-1.061-1.066 0-0.296 0.12-0.563 0.315-0.756l0-0h-0.002zM21.024 9.738l-0.599 2.945-1.175-1.182 1.774-1.764zM20.419 8.836l-1.92 1.909-1.485-1.493 3.405-0.415zM23.004 28.8c0.884 0 1.6 0.716 1.6 1.6v0 0.534h-23.466v-0.534c0-0.884 0.716-1.6 1.6-1.6h20.267zM15.537 26.666v1.067h-5.333v-1.067h5.334zM10.204 25.6v-4.053c0-1.294 1.197-2.346 2.666-2.346s2.667 1.053 2.667 2.346v4.053h-5.333zM16.604 23.904v-2.357c0-1.882-1.675-3.413-3.733-3.413-0.018-0-0.038-0-0.059-0-1.353 0-2.54 0.707-3.213 1.771l-0.009 0.016c-2.36-2.482-3.811-5.846-3.811-9.549 0-2.314 0.567-4.496 1.569-6.414l-0.036 0.077 18.602 18.709c-1.823 0.947-3.98 1.502-6.266 1.502-1.079 0-2.128-0.124-3.136-0.357l0.093 0.018zM27.893 23.221l-21.057-21.18 0.755-0.752 7.935 7.98c0.004 0 0.005 0.007 0.009 0.009l13.114 13.191-0.757 0.752z"></path>
</symbol>
<symbol id="icon-uyducircle" viewBox="0 0 32 32">
<path fill="#4d5ae5" style="fill: var(--color4, #4d5ae5)" d="M17.147 2.437h-0.046c-0.007 0-0.015-0-0.023-0-8.079 0-14.629 6.549-14.629 14.629 0 8.071 6.536 14.616 14.604 14.629h0.047c0.007 0 0.015 0 0.023 0 8.079 0 14.629-6.549 14.629-14.629 0-8.071-6.536-14.616-14.605-14.629h-0.001zM20.562 20.526c-0.882 0.879-2.099 1.422-3.442 1.422-2.694 0-4.878-2.184-4.878-4.878 0-2.687 2.173-4.867 4.858-4.878h0.001c2.682 0.015 4.851 2.193 4.851 4.878 0 1.35-0.549 2.573-1.436 3.456l-0 0h0.046z"></path>
</symbol>
<symbol id="icon-checkmark" viewBox="0 0 32 32">
<path d="M27 4l-15 15-7-7-5 5 12 12 20-20z"></path>
</symbol>
</defs>
</svg>